<?xml version="1.0" encoding="utf-8"?>
<!-- Generator: Adobe Illustrator 24.1.1, SVG Export Plug-In . SVG Version: 6.00 Build 0)  -->
<svg version="1.1" id="Capa_1" xmlns="http://www.w3.org/2000/svg" xmlns:xlink="http://www.w3.org/1999/xlink" x="0px" y="0px"
	 viewBox="0 0 102.653 105.505" enable-background="new 0 0 102.653 105.505" xml:space="preserve">
<g id="Capa_1_1_" display="none">
	
		<image display="inline" overflow="visible" enable-background="new    " width="512" height="512" xlink:href="../../../../../Downloads/credit-card.png"  transform="matrix(0.1891 0 0 0.1891 3.428 2.8515)">
	</image>
</g>
<g id="Capa_2_1_">
</g>
<g id="Capa_3">
	<path fill="#F50B16" d="M99.278,68.754v-7.876c0,0,0.334-3.125-2.262-3.708l-16.087-6.807c0,0-0.592-0.485-1.589,0l-16.376,6.902
		c0,0-1.813,0.824-1.884,2.072c0,0-0.635,14.645,1.025,19.484c0,0,0.318,4.45,7.346,12.29c0,0,7.805,6.357,9.041,6.428
		c1.236,0.071,1.801,0.435,3.426-0.459c0,0,10.383-3.814,15.327-15.61C97.246,81.468,99.307,75.127,99.278,68.754z M92.266,81.116
		c-4.132,7.841-10.842,10.98-10.842,10.98c-1.158,0.699-1.561,0.414-2.442,0.358c-0.882-0.056-6.446-5.02-6.446-5.02
		c-5.239-5.612-5.839-9.498-5.839-9.498c-1.636-4.028-0.93-15.328-0.93-15.328c0.015-0.297-0.143-0.782-0.035-1.025
		c0.245-0.554,0.859-0.718,0.859-0.718l13.039-5.627c0.712-0.38,1.133,0,1.133,0l13.764,6.204v8.688
		C94.238,75.008,92.266,81.116,92.266,81.116z"/>
	<path fill="#F50B16" d="M79.587,80.127l9.748-11.961c0,0,0.612-2.59-0.565-3.249c0,0-1.836-0.847-3.108,0.471l-7.722,9.606
		l-3.484-4.662c0,0-0.894-1.648-2.778-0.754c0,0-1.318,1.083-0.942,3.155l5.18,7.77C75.914,80.503,77.645,82.51,79.587,80.127z"/>
</g>
<path fill="#423E3E" d="M58.386,77.83c-0.022-1.674-1.507-1.782-2.109-1.782H11.345c-1.62,0-2.933-1.313-2.933-2.933V45.394h81.786
	v0.73c0.012,0.649,0.175,2.72,1.782,2.419c0,0,2.257,0.772,2.257-2.614V21.632c0-3.084-2.5-5.584-5.584-5.584H10.357
	c-3.084,0-5.584,2.5-5.584,5.584v52.515c0,3.084,2.5,5.584,5.584,5.584h45.772C56.129,79.731,58.416,80.08,58.386,77.83z
	 M8.412,22.62c0-1.62,1.313-2.933,2.933-2.933h75.921c1.62,0,2.933,1.313,2.933,2.933v4.359H8.412V22.62z M8.412,30.781h81.786
	v10.812H8.412V30.781z"/>
<path fill="#423E3E" d="M43.45,56.711H13.461c-1.036,0-1.877-0.84-1.877-1.877v-0.206c0-1.036,0.84-1.877,1.877-1.877H43.45
	c1.036,0,1.877,0.84,1.877,1.877v0.206C45.327,55.871,44.486,56.711,43.45,56.711z"/>
</svg>
