<?xml version="1.0" encoding="utf-8"?>
<!-- Generator: Adobe Illustrator 24.1.1, SVG Export Plug-In . SVG Version: 6.00 Build 0)  -->
<svg version="1.1" id="Capa_1" xmlns="http://www.w3.org/2000/svg" xmlns:xlink="http://www.w3.org/1999/xlink" x="0px" y="0px"
	 viewBox="0 0 196.186 79.237" enable-background="new 0 0 196.186 79.237" xml:space="preserve">
<path fill="#FFFFFF" d="M63.283,5.372h5.385v8.624h0.068c0.407-0.76,0.859-1.506,1.303-2.237l3.902-6.387h6.681l-6.447,8.647
	l6.703,11.66h-6.312l-4.271-8.233l-1.627,2.079v6.154h-5.385V5.372z"/>
<path fill="#FFFFFF" d="M88.147,5.372v11.524c0,3.066,1.062,4.798,3.216,4.798c2.162,0,3.217-1.574,3.217-4.798V5.372h5.438v11.2
	c0,6.275-3.118,9.438-8.828,9.438c-5.551,0-8.481-3.05-8.481-9.566V5.372H88.147z"/>
<path fill="#FFFFFF" d="M103.746,25.679V5.372h6.417l3.224,6.229c1.1,2.019,2.29,4.738,3.186,7.118h0.083
	c-0.301-2.674-0.407-5.513-0.407-8.549V5.372h4.972v20.307h-5.74l-3.442-6.749c-1.13-2.154-2.448-4.881-3.42-7.336h-0.105
	c0.135,2.741,0.203,5.8,0.203,9.099v4.986H103.746z"/>
<polygon fill="#FFFFFF" points="128.926,9.936 123.751,9.936 123.751,5.372 139.637,5.372 139.637,9.936 134.364,9.936 
	134.364,25.678 128.926,25.678 "/>
<path fill="#FFFFFF" d="M147.559,5.372v11.524c0,3.066,1.062,4.798,3.216,4.798c2.162,0,3.217-1.574,3.217-4.798V5.372h5.438v11.2
	c0,6.275-3.118,9.438-8.828,9.438c-5.551,0-8.481-3.05-8.481-9.566V5.372H147.559z"/>
<path fill="#FFFFFF" d="M163.159,5.651c1.536-0.241,3.841-0.437,6.56-0.437c3.111,0,5.34,0.429,6.869,1.582
	c1.303,0.994,2.004,2.44,2.004,4.428c0,2.531-1.898,4.332-3.48,4.911v0.106c1.348,0.58,2.079,1.875,2.599,3.638
	c0.61,2.064,1.28,5.016,1.672,5.8h-5.559c-0.309-0.588-0.836-2.177-1.424-4.678c-0.55-2.433-1.295-2.938-2.975-2.938h-0.881v7.616
	h-5.385V5.651z M168.544,14.162h1.416c2.049,0,3.231-1.002,3.231-2.523c0-1.522-1.002-2.388-2.809-2.403
	c-1.025,0-1.567,0.053-1.838,0.12V14.162z"/>
<path fill="#DFB608" d="M27.479,27.965c-0.545-0.223-1.12-0.343-1.715-0.343c-3.451,0-6.249,4.019-6.249,8.976
	s2.798,8.976,6.249,8.976c0.595,0,1.17-0.12,1.715-0.343c1.873-2.034,3.074-5.147,3.074-8.633
	C30.553,33.113,29.352,29.999,27.479,27.965 M28.157,31.447c0.336,0,0.609,0.273,0.609,0.609c0,0.336-0.273,0.609-0.609,0.609
	c-0.336,0-0.609-0.273-0.609-0.609C27.548,31.72,27.821,31.447,28.157,31.447 M28.157,41.244c-0.336,0-0.609-0.273-0.609-0.609
	s0.273-0.609,0.609-0.609c0.336,0,0.609,0.273,0.609,0.609S28.493,41.244,28.157,41.244"/>
<path fill="#DFB608" d="M82.582,31.648c-2.05-1.572-5.064-2.332-9.271-2.332c-4.447,0-7.515,0.282-9.64,0.629v28.17l-6.549,3.223
	h10.237l4.006-2.453l-0.073-0.106h0.132v-9.922c0.477,0.032,1.149,0.097,1.908,0.097c3.947,0,7.374-0.943,9.738-3.057
	c1.854-1.66,2.841-4.251,2.841-7.212C85.911,35.703,84.577,33.123,82.582,31.648 M73.213,42.958c-0.846,0-1.366-0.033-1.789-0.109
	V35.4c0.401-0.098,1.171-0.185,2.32-0.185c2.982,0,4.424,1.475,4.424,3.655C78.168,41.386,76.26,42.958,73.213,42.958"/>
<path fill="#DFB608" d="M106.818,46.135c0,4.641-1.518,6.908-4.63,6.908c-3.102,0-4.631-2.494-4.631-6.908v-16.59h-7.828v15.939
	c0,9.38,4.217,13.772,12.209,13.772c8.22,0,12.709-4.554,12.709-13.587V29.545h-7.829V46.135z"/>
<path fill="#DFB608" d="M140.923,29.544l-2.191,7.807c-0.856,3.08-1.832,7.211-2.645,10.779h-0.152
	c-0.608-3.59-1.475-7.461-2.277-10.714l-1.931-7.872h-10.539l-1.801,29.234h7.211l0.445-10.464c0.13-3.318,0.282-7.677,0.444-11.798
	h0.087c0.683,4.023,1.583,8.35,2.332,11.494l2.45,10.161h6.127l2.895-10.193c0.944-3.21,2.18-7.569,3.08-11.462h0.119
	c-0.011,4.576,0.065,8.48,0.163,11.798l0.347,10.464h7.601l-1.464-29.234H140.923z"/>
<path fill="#DFB608" d="M176.448,31.648c-2.05-1.572-5.064-2.332-9.271-2.332c-4.446,0-7.515,0.282-9.641,0.629v28.834h7.754v-9.922
	c0.477,0.032,1.149,0.097,1.908,0.097c3.947,0,7.374-0.943,9.738-3.057c1.854-1.66,2.841-4.251,2.841-7.212
	C179.777,35.703,178.443,33.123,176.448,31.648 M167.079,42.958c-0.846,0-1.366-0.033-1.789-0.109V35.4
	c0.401-0.098,1.171-0.185,2.32-0.185c2.982,0,4.425,1.475,4.425,3.655C172.035,41.386,170.126,42.958,167.079,42.958"/>
<polygon fill="#DFB608" points="50.426,64.634 44.18,67.709 10.684,62.329 18.804,59.894 17.966,59.489 6.116,62.43 6.827,62.986 
	7.03,66.998 6.116,67.506 45.35,74.814 61.976,64.634 "/>
<rect x="73.459" y="64.17" fill="#FFFFFF" width="0.503" height="3.896"/>
<path fill="#FFFFFF" d="M74.881,66.026c0-0.289-0.006-0.526-0.023-0.757h0.451l0.029,0.462h0.011
	c0.139-0.266,0.463-0.526,0.925-0.526c0.387,0,0.988,0.231,0.988,1.191v1.67h-0.508v-1.612c0-0.451-0.168-0.827-0.648-0.827
	c-0.335,0-0.595,0.237-0.682,0.521c-0.023,0.063-0.034,0.15-0.034,0.236v1.682h-0.509V66.026z"/>
<path fill="#FFFFFF" d="M78.211,65.269l0.549,1.572c0.093,0.255,0.168,0.486,0.226,0.717h0.017c0.064-0.231,0.145-0.462,0.237-0.717
	l0.543-1.572h0.532l-1.098,2.798h-0.486l-1.063-2.798H78.211z"/>
<path fill="#FFFFFF" d="M81.02,66.76c0.011,0.688,0.451,0.971,0.959,0.971c0.364,0,0.584-0.063,0.775-0.144l0.087,0.364
	c-0.18,0.081-0.486,0.173-0.931,0.173c-0.861,0-1.376-0.566-1.376-1.41c0-0.844,0.497-1.509,1.312-1.509
	c0.914,0,1.156,0.804,1.156,1.318c0,0.104-0.011,0.185-0.017,0.237H81.02z M82.511,66.396c0.006-0.323-0.133-0.826-0.705-0.826
	c-0.515,0-0.74,0.473-0.78,0.826H82.511z"/>
<path fill="#FFFFFF" d="M83.563,67.546c0.15,0.099,0.416,0.202,0.671,0.202c0.37,0,0.543-0.184,0.543-0.416
	c0-0.243-0.145-0.375-0.52-0.514c-0.503-0.179-0.74-0.457-0.74-0.792c0-0.451,0.364-0.821,0.965-0.821
	c0.283,0,0.532,0.081,0.688,0.174l-0.127,0.37c-0.11-0.07-0.312-0.162-0.572-0.162c-0.301,0-0.469,0.173-0.469,0.381
	c0,0.231,0.168,0.335,0.532,0.474c0.486,0.185,0.734,0.428,0.734,0.844c0,0.491-0.381,0.838-1.046,0.838
	c-0.306,0-0.59-0.075-0.786-0.191L83.563,67.546z"/>
<path fill="#FFFFFF" d="M86.534,64.465v0.803h0.728v0.388h-0.728v1.508c0,0.347,0.098,0.544,0.382,0.544
	c0.133,0,0.231-0.018,0.294-0.035l0.024,0.382c-0.099,0.04-0.255,0.069-0.451,0.069c-0.237,0-0.428-0.075-0.549-0.214
	c-0.145-0.15-0.197-0.399-0.197-0.728v-1.526h-0.434v-0.388h0.434v-0.67L86.534,64.465z"/>
<path fill="#FFFFFF" d="M88.401,64.483c0.006,0.173-0.121,0.312-0.324,0.312c-0.179,0-0.306-0.139-0.306-0.312
	c0-0.18,0.133-0.318,0.318-0.318C88.28,64.165,88.401,64.303,88.401,64.483 M87.835,65.269h0.509v2.798h-0.509V65.269z"/>
<path fill="#FFFFFF" d="M91.597,65.269c-0.011,0.202-0.023,0.428-0.023,0.769v1.624c0,0.642-0.127,1.034-0.399,1.277
	c-0.271,0.255-0.665,0.336-1.017,0.336c-0.335,0-0.705-0.081-0.931-0.231l0.127-0.388c0.185,0.116,0.474,0.22,0.821,0.22
	c0.52,0,0.902-0.272,0.902-0.977v-0.312h-0.012c-0.156,0.26-0.456,0.468-0.89,0.468c-0.693,0-1.191-0.589-1.191-1.364
	c0-0.948,0.619-1.486,1.261-1.486c0.485,0,0.751,0.255,0.872,0.486h0.012l0.023-0.422H91.597z M91.071,66.373
	c0-0.087-0.006-0.162-0.029-0.231c-0.092-0.295-0.341-0.538-0.711-0.538c-0.485,0-0.832,0.411-0.832,1.058
	c0,0.549,0.277,1.006,0.826,1.006c0.313,0,0.596-0.197,0.706-0.52c0.029-0.087,0.04-0.185,0.04-0.272V66.373z"/>
<path fill="#FFFFFF" d="M93.967,68.067l-0.04-0.353h-0.018c-0.156,0.22-0.456,0.416-0.855,0.416c-0.567,0-0.856-0.398-0.856-0.803
	c0-0.676,0.601-1.046,1.682-1.041v-0.057c0-0.231-0.063-0.648-0.635-0.648c-0.261,0-0.532,0.081-0.729,0.208l-0.115-0.335
	c0.231-0.15,0.566-0.249,0.919-0.249c0.855,0,1.063,0.584,1.063,1.145v1.046c0,0.243,0.012,0.48,0.046,0.671H93.967z M93.892,66.639
	c-0.555-0.011-1.185,0.087-1.185,0.63c0,0.33,0.22,0.486,0.48,0.486c0.364,0,0.595-0.231,0.676-0.468
	c0.017-0.053,0.029-0.11,0.029-0.162V66.639z"/>
<path fill="#FFFFFF" d="M97.198,67.962c-0.133,0.069-0.428,0.162-0.803,0.162c-0.844,0-1.393-0.572-1.393-1.428
	c0-0.861,0.589-1.485,1.502-1.485c0.301,0,0.567,0.075,0.706,0.144l-0.116,0.393c-0.121-0.069-0.312-0.132-0.59-0.132
	c-0.641,0-0.988,0.473-0.988,1.057c0,0.647,0.416,1.046,0.971,1.046c0.289,0,0.48-0.075,0.624-0.138L97.198,67.962z"/>
<path fill="#FFFFFF" d="M98.36,64.483c0.006,0.173-0.121,0.312-0.324,0.312c-0.179,0-0.306-0.139-0.306-0.312
	c0-0.18,0.133-0.318,0.318-0.318C98.239,64.165,98.36,64.303,98.36,64.483 M97.794,65.269h0.509v2.798h-0.509V65.269z"/>
<path fill="#FFFFFF" d="M101.678,66.644c0,1.035-0.717,1.486-1.393,1.486c-0.757,0-1.341-0.555-1.341-1.439
	c0-0.937,0.612-1.486,1.387-1.486C101.134,65.205,101.678,65.789,101.678,66.644 M99.458,66.673c0,0.613,0.353,1.075,0.85,1.075
	c0.485,0,0.85-0.456,0.85-1.086c0-0.474-0.237-1.075-0.838-1.075C99.718,65.587,99.458,66.142,99.458,66.673 M101.071,64.061
	l-0.705,0.826h-0.364l0.508-0.826H101.071z"/>
<path fill="#FFFFFF" d="M102.32,66.026c0-0.289-0.006-0.526-0.023-0.757h0.451l0.029,0.462h0.011
	c0.139-0.266,0.463-0.526,0.925-0.526c0.387,0,0.988,0.231,0.988,1.191v1.67h-0.508v-1.612c0-0.451-0.168-0.827-0.648-0.827
	c-0.335,0-0.595,0.237-0.682,0.521c-0.023,0.063-0.034,0.15-0.034,0.236v1.682h-0.509V66.026z"/>
<path fill="#FFFFFF" d="M105.198,68.778c0.127-0.341,0.283-0.959,0.347-1.382l0.566-0.057c-0.133,0.491-0.387,1.133-0.549,1.404
	L105.198,68.778z"/>
<path fill="#FFFFFF" d="M110.365,63.962v3.382c0,0.248,0.006,0.531,0.024,0.722h-0.457l-0.023-0.485h-0.012
	c-0.156,0.312-0.497,0.549-0.954,0.549c-0.676,0-1.196-0.573-1.196-1.422c-0.005-0.931,0.572-1.503,1.254-1.503
	c0.428,0,0.717,0.202,0.844,0.427h0.012v-1.67H110.365z M109.857,66.407c0-0.064-0.006-0.15-0.023-0.214
	c-0.076-0.324-0.353-0.589-0.734-0.589c-0.526,0-0.839,0.462-0.839,1.08c0,0.567,0.278,1.035,0.827,1.035
	c0.341,0,0.653-0.225,0.746-0.607c0.017-0.069,0.023-0.138,0.023-0.219V66.407z"/>
<path fill="#FFFFFF" d="M111.492,66.76c0.012,0.688,0.451,0.971,0.96,0.971c0.364,0,0.584-0.063,0.775-0.144l0.086,0.364
	c-0.179,0.081-0.485,0.173-0.93,0.173c-0.862,0-1.376-0.566-1.376-1.41c0-0.844,0.497-1.509,1.312-1.509
	c0.913,0,1.156,0.804,1.156,1.318c0,0.104-0.012,0.185-0.017,0.237H111.492z M112.984,66.396c0.005-0.323-0.133-0.826-0.705-0.826
	c-0.515,0-0.74,0.473-0.781,0.826H112.984z"/>
<path fill="#FFFFFF" d="M114.035,67.546c0.15,0.099,0.416,0.202,0.671,0.202c0.37,0,0.543-0.184,0.543-0.416
	c0-0.243-0.145-0.375-0.521-0.514c-0.502-0.179-0.739-0.457-0.739-0.792c0-0.451,0.364-0.821,0.965-0.821
	c0.283,0,0.532,0.081,0.688,0.174l-0.127,0.37c-0.11-0.07-0.313-0.162-0.572-0.162c-0.301,0-0.469,0.173-0.469,0.381
	c0,0.231,0.168,0.335,0.532,0.474c0.486,0.185,0.734,0.428,0.734,0.844c0,0.491-0.381,0.838-1.046,0.838
	c-0.307,0-0.59-0.075-0.786-0.191L114.035,67.546z"/>
<path fill="#FFFFFF" d="M117.943,68.067l-0.04-0.353h-0.018c-0.156,0.22-0.456,0.416-0.855,0.416c-0.567,0-0.856-0.398-0.856-0.803
	c0-0.676,0.602-1.046,1.683-1.041v-0.057c0-0.231-0.064-0.648-0.636-0.648c-0.261,0-0.532,0.081-0.729,0.208l-0.115-0.335
	c0.231-0.15,0.566-0.249,0.919-0.249c0.855,0,1.063,0.584,1.063,1.145v1.046c0,0.243,0.012,0.48,0.047,0.671H117.943z
	 M117.868,66.639c-0.555-0.011-1.185,0.087-1.185,0.63c0,0.33,0.22,0.486,0.48,0.486c0.364,0,0.595-0.231,0.676-0.468
	c0.018-0.053,0.029-0.11,0.029-0.162V66.639z"/>
<path fill="#FFFFFF" d="M119.179,66.142c0-0.33-0.005-0.613-0.023-0.873h0.445l0.018,0.55h0.023
	c0.127-0.376,0.433-0.614,0.774-0.614c0.058,0,0.098,0.007,0.145,0.018v0.48c-0.052-0.011-0.104-0.018-0.174-0.018
	c-0.358,0-0.613,0.272-0.682,0.654c-0.011,0.069-0.023,0.15-0.023,0.237v1.491h-0.503V66.142z"/>
<path fill="#FFFFFF" d="M121.093,66.142c0-0.33-0.005-0.613-0.023-0.873h0.445l0.018,0.55h0.023
	c0.127-0.376,0.433-0.614,0.774-0.614c0.058,0,0.098,0.007,0.145,0.018v0.48c-0.052-0.011-0.104-0.018-0.174-0.018
	c-0.358,0-0.613,0.272-0.682,0.654c-0.011,0.069-0.023,0.15-0.023,0.237v1.491h-0.503V66.142z"/>
<path fill="#FFFFFF" d="M125.457,66.644c0,1.035-0.717,1.486-1.393,1.486c-0.757,0-1.341-0.555-1.341-1.439
	c0-0.937,0.613-1.486,1.387-1.486C124.913,65.205,125.457,65.789,125.457,66.644 M123.237,66.673c0,0.613,0.353,1.075,0.85,1.075
	c0.485,0,0.85-0.457,0.85-1.086c0-0.474-0.237-1.075-0.839-1.075C123.497,65.587,123.237,66.141,123.237,66.673"/>
<rect x="126.098" y="63.962" fill="#FFFFFF" width="0.509" height="4.104"/>
<rect x="127.462" y="63.962" fill="#FFFFFF" width="0.509" height="4.104"/>
<path fill="#FFFFFF" d="M131.359,66.644c0,1.035-0.717,1.486-1.393,1.486c-0.757,0-1.341-0.555-1.341-1.439
	c0-0.937,0.613-1.486,1.387-1.486C130.815,65.205,131.359,65.789,131.359,66.644 M129.139,66.673c0,0.613,0.353,1.075,0.85,1.075
	c0.485,0,0.85-0.457,0.85-1.086c0-0.474-0.237-1.075-0.839-1.075C129.399,65.587,129.139,66.141,129.139,66.673"/>
<path fill="#FFFFFF" d="M133.508,66.76c0.012,0.688,0.451,0.971,0.96,0.971c0.364,0,0.584-0.063,0.774-0.144l0.087,0.364
	c-0.179,0.081-0.485,0.173-0.93,0.173c-0.862,0-1.376-0.566-1.376-1.41c0-0.844,0.497-1.509,1.312-1.509
	c0.913,0,1.156,0.804,1.156,1.318c0,0.104-0.012,0.185-0.017,0.237H133.508z M135,66.396c0.005-0.323-0.133-0.826-0.705-0.826
	c-0.515,0-0.74,0.473-0.781,0.826H135z"/>
<path fill="#FFFFFF" d="M137.913,64.483c0.006,0.173-0.122,0.312-0.324,0.312c-0.179,0-0.306-0.139-0.306-0.312
	c0-0.18,0.133-0.318,0.318-0.318C137.791,64.165,137.913,64.303,137.913,64.483 M137.346,65.269h0.509v2.798h-0.509V65.269z"/>
<path fill="#FFFFFF" d="M138.699,66.026c0-0.289-0.005-0.526-0.023-0.757h0.445l0.023,0.451h0.018
	c0.156-0.266,0.416-0.515,0.878-0.515c0.382,0,0.671,0.231,0.792,0.561h0.012c0.086-0.156,0.196-0.278,0.312-0.364
	c0.167-0.127,0.353-0.197,0.618-0.197c0.37,0,0.92,0.243,0.92,1.214v1.647h-0.498v-1.583c0-0.538-0.196-0.862-0.607-0.862
	c-0.289,0-0.514,0.214-0.601,0.463c-0.023,0.069-0.04,0.162-0.04,0.254v1.728h-0.497V66.39c0-0.445-0.197-0.769-0.584-0.769
	c-0.318,0-0.549,0.255-0.63,0.509c-0.029,0.075-0.041,0.162-0.041,0.249v1.687h-0.497V66.026z"/>
<path fill="#FFFFFF" d="M143.519,66.026c0-0.289-0.005-0.526-0.023-0.757h0.451l0.029,0.462h0.012
	c0.138-0.266,0.462-0.526,0.924-0.526c0.387,0,0.989,0.231,0.989,1.191v1.67h-0.509v-1.612c0-0.451-0.168-0.827-0.647-0.827
	c-0.336,0-0.596,0.237-0.682,0.521c-0.024,0.063-0.035,0.15-0.035,0.236v1.682h-0.509V66.026z"/>
<path fill="#FFFFFF" d="M149.259,66.644c0,1.035-0.717,1.486-1.393,1.486c-0.757,0-1.341-0.555-1.341-1.439
	c0-0.937,0.613-1.486,1.387-1.486C148.715,65.205,149.259,65.789,149.259,66.644 M147.039,66.673c0,0.613,0.353,1.075,0.85,1.075
	c0.485,0,0.85-0.457,0.85-1.086c0-0.474-0.237-1.075-0.839-1.075C147.299,65.587,147.039,66.141,147.039,66.673"/>
<path fill="#FFFFFF" d="M150.057,65.269l0.549,1.572c0.093,0.255,0.168,0.486,0.226,0.717h0.017
	c0.063-0.231,0.145-0.462,0.237-0.717l0.543-1.572h0.532l-1.098,2.798h-0.486l-1.063-2.798H150.057z"/>
<path fill="#FFFFFF" d="M154.166,68.067l-0.04-0.353h-0.018c-0.156,0.22-0.456,0.416-0.855,0.416c-0.567,0-0.856-0.398-0.856-0.803
	c0-0.676,0.602-1.046,1.683-1.041v-0.057c0-0.231-0.064-0.648-0.636-0.648c-0.261,0-0.532,0.081-0.729,0.208l-0.115-0.335
	c0.231-0.15,0.566-0.249,0.919-0.249c0.855,0,1.063,0.584,1.063,1.145v1.046c0,0.243,0.012,0.48,0.047,0.671H154.166z
	 M154.091,66.639c-0.555-0.011-1.185,0.087-1.185,0.63c0,0.33,0.22,0.486,0.48,0.486c0.364,0,0.595-0.231,0.676-0.468
	c0.018-0.053,0.029-0.11,0.029-0.162V66.639z"/>
<path fill="#FFFFFF" d="M157.398,67.962c-0.133,0.069-0.428,0.162-0.804,0.162c-0.844,0-1.393-0.572-1.393-1.428
	c0-0.861,0.59-1.485,1.503-1.485c0.301,0,0.567,0.075,0.705,0.144l-0.115,0.393c-0.122-0.069-0.312-0.132-0.59-0.132
	c-0.641,0-0.988,0.473-0.988,1.057c0,0.647,0.416,1.046,0.971,1.046c0.289,0,0.479-0.075,0.624-0.138L157.398,67.962z"/>
<path fill="#FFFFFF" d="M158.559,64.483c0.006,0.173-0.121,0.312-0.323,0.312c-0.179,0-0.306-0.139-0.306-0.312
	c0-0.18,0.132-0.318,0.317-0.318C158.438,64.165,158.559,64.303,158.559,64.483 M157.993,65.269h0.509v2.798h-0.509V65.269z"/>
<path fill="#FFFFFF" d="M161.877,66.644c0,1.035-0.716,1.486-1.393,1.486c-0.757,0-1.341-0.555-1.341-1.439
	c0-0.937,0.613-1.486,1.387-1.486C161.334,65.205,161.877,65.789,161.877,66.644 M159.657,66.673c0,0.613,0.353,1.075,0.85,1.075
	c0.486,0,0.85-0.456,0.85-1.086c0-0.474-0.237-1.075-0.838-1.075S159.657,66.142,159.657,66.673 M161.27,64.061l-0.705,0.826h-0.364
	l0.508-0.826H161.27z"/>
<path fill="#FFFFFF" d="M162.519,66.026c0-0.289-0.006-0.526-0.023-0.757h0.451l0.029,0.462h0.011
	c0.139-0.266,0.463-0.526,0.925-0.526c0.387,0,0.989,0.231,0.989,1.191v1.67h-0.509v-1.612c0-0.451-0.168-0.827-0.647-0.827
	c-0.336,0-0.596,0.237-0.682,0.521c-0.024,0.063-0.035,0.15-0.035,0.236v1.682h-0.509V66.026z"/>
<path fill="#DFB608" d="M17.214,36.598c0-5.514,3.221-9.984,7.195-9.984c0.573,0,1.127,0.101,1.661,0.278
	c-0.808-0.447-1.685-0.697-2.603-0.697c-4,0-7.243,4.658-7.243,10.403c0,5.745,3.243,10.403,7.243,10.403
	c0.918,0,1.795-0.25,2.603-0.697c-0.534,0.177-1.088,0.278-1.661,0.278C20.435,46.582,17.214,42.112,17.214,36.598"/>
<path fill="#DFB608" d="M39.08,11.806c-0.755,1.104-2.961,4.41-4.117,6.143c1.737,1.287,3.282,2.958,4.566,4.927l0.947-0.691
	l-0.356-9.389C40.12,12.796,40.247,11.349,39.08,11.806"/>
<path fill="#DFB608" d="M26.569,17.233c-2.887,0-5.581,1.118-7.86,3.041c2.131-1.715,4.614-2.703,7.265-2.703
	c7.898,0,14.323,8.745,14.323,19.494c0,10.748-6.425,19.493-14.323,19.493c-2.649,0-5.13-0.986-7.26-2.699
	c2.278,1.921,4.971,3.036,7.855,3.036c8.16,0,14.798-8.896,14.798-19.83C41.367,26.129,34.729,17.233,26.569,17.233"/>
<path fill="#DFB608" d="M26.569,15.058c2.704,0,5.261,0.828,7.532,2.293l5.993-8.92l-0.078-0.702
	c-0.796,0.298-1.519,0.678-2.129,1.159c0,1.624-0.051,2.233-0.051,2.233l-0.863-0.178c-0.002,0-8.107-0.605-14.696,4.829
	C23.649,15.307,25.087,15.058,26.569,15.058"/>
<path fill="#DFB608" d="M25.974,55.594c7.366,0,13.359-8.313,13.359-18.53c0-10.217-5.993-18.53-13.359-18.53
	c-7.367,0-13.36,8.313-13.36,18.53C12.614,47.281,18.607,55.594,25.974,55.594 M13.12,36.598c0-6.646,4.126-12.053,9.199-12.053
	c5.072,0,9.198,5.407,9.198,12.053c0,6.646-4.126,12.054-9.198,12.054C17.246,48.652,13.12,43.244,13.12,36.598"/>
<path fill="#DFB608" d="M53.426,29.861c-1.792,0.316-7.703,1.522-10.356,2.065c0.305,1.65,0.472,3.368,0.472,5.138
	c0,2.733-0.39,5.35-1.095,7.766c1.507,0.588,4.315,1.656,6.739,2.431c2.362,0.637,4.862,0.697,6.429,0.651
	c1.798-4.372,2.889-9.951,2.322-16.933C56.888,30.532,55.092,29.884,53.426,29.861"/>
<path fill="#DFB608" d="M46.523,47.764L42.073,46c-1.538,4.469-4.189,8.156-7.498,10.461c0.442,1.214,1.281,2.999,2.009,3.954
	c1.122,1.697,5.831,1.125,7.056,0.945c0.06-0.026,0.12-0.048,0.18-0.075c-2.579-0.587-3.117-3.256-3.117-3.256l-0.266-0.762
	c0,0,0.342-0.038,1.827-1.066c2.588-2.131,2.969-1.103,3.806-0.723c2.473,1.158,3.818,0.915,4.803,0.214
	c1.486-1.728,2.969-3.894,4.202-6.545C51.32,49.487,46.523,47.764,46.523,47.764"/>
<path fill="#DFB608" d="M52.843,28.591c0,0,1.182-0.446,4.978,1.152c-0.08-0.746-0.175-1.504-0.293-2.28
	c-0.122-1.344-0.232-2.633-0.329-3.867c-1.158-0.485-6.367-2.299-15.734-0.346c-0.492,0.362-0.876,0.648-1.179,0.874
	c1.066,1.895,1.906,4.016,2.465,6.299L52.843,28.591z"/>
<path fill="#DFB608" d="M48.748,5.132c1.929,0.152,6.902,0.152,6.852,2.69c-0.125-0.083-8.55-1.967-14.358-0.475l0.502,14
	c0,0-0.101,0.482,1.269,0.279c1.396-0.152,6.598-1.776,11.901-0.127c0.712,0.25,1.671,0.559,2.18,0.722
	c-0.535-7.259-0.596-12.286-0.099-13.714c0.685-0.99,0.584-1.142,0.558-1.802c-0.025-0.659-0.406-1.548-1.471-1.624
	c-0.153-0.304-3.401-2.284-12.891-1.294c-1.573,0.178-8.019,1.066-7.461,4.365C35.73,8.152,38.446,4.929,48.748,5.132"/>
<path fill="#DFB608" d="M23.034,60.661c0.161,0.084,0.323,0.167,0.49,0.247c0,0,4.414,1.727,9.936,2.028
	c-1.178-1.325-1.913-3.323-2.308-4.688c-1.459,0.531-2.995,0.822-4.583,0.822c-1.494,0-2.943-0.255-4.324-0.727
	C22.15,59.379,22.546,60.135,23.034,60.661"/>
<path fill="#DFB608" d="M19.286,57.95c0.062-0.214,0.108-0.345,0.108-0.345l0.156-0.511c-0.878-0.519-1.717-1.13-2.508-1.828
	C17.652,56.157,18.387,57.075,19.286,57.95"/>
</svg>
