<?xml version="1.0" encoding="utf-8"?>
<!-- Generator: Adobe Illustrator 24.1.1, SVG Export Plug-In . SVG Version: 6.00 Build 0)  -->
<svg version="1.1" id="Capa_1" xmlns="http://www.w3.org/2000/svg" xmlns:xlink="http://www.w3.org/1999/xlink" x="0px" y="0px"
	 viewBox="0 0 84.9 20" enable-background="new 0 0 84.9 20" xml:space="preserve">
<path fill="#FFFFFF" d="M73.9,19.3c1,0,1.7-0.8,1.7-1.7s-0.8-1.7-1.7-1.7s-1.7,0.8-1.7,1.7S72.9,19.3,73.9,19.3z"/>
<path fill="#FFFFFF" d="M10.7,15.5c0,0.8-0.2,1.5-0.6,2.1s-1,1-1.9,1.3c-0.8,0.3-1.8,0.4-3,0.4c-1.1,0-2.1-0.2-2.9-0.5
	s-1.4-0.7-1.8-1.2C0.2,17.1,0,16.7,0,16.2c0-0.3,0.1-0.6,0.4-0.8C0.6,15.1,0.9,15,1.3,15c0.3,0,0.6,0.1,0.8,0.2s0.3,0.4,0.5,0.6
	c0.3,0.5,0.7,0.9,1.2,1.1c0.4,0.3,1,0.4,1.8,0.4c0.6,0,1.1-0.1,1.5-0.4s0.6-0.6,0.6-0.9c0-0.5-0.2-0.9-0.6-1.1S6,14.5,5,14.3
	c-1.1-0.2-1.9-0.5-2.6-0.8s-1.2-0.6-1.6-1.1c-0.4-0.4-0.6-1-0.6-1.7c0-0.6,0.2-1.1,0.6-1.7c0.4-0.5,0.9-0.9,1.7-1.2
	C3.1,7.6,4,7.4,5,7.4c0.8,0,1.5,0.1,2.2,0.2C7.9,7.8,8.4,8,8.8,8.2c0.4,0.3,0.8,0.6,1,0.9c0.2,0.3,0.3,0.6,0.3,0.9
	c0,0.3-0.1,0.6-0.4,0.8c-0.3,0.2-0.6,0.3-1,0.3c-0.3,0-0.6-0.1-0.8-0.3S7.4,10.4,7.1,10C6.9,9.9,6.6,9.7,6.3,9.5
	C6,9.3,5.6,9.2,5,9.2S4,9.3,3.6,9.5S3,10,3,10.3s0.1,0.6,0.4,0.8s0.7,0.4,1.1,0.5s1.1,0.3,1.9,0.5c1,0.2,1.8,0.5,2.4,0.8
	s1.1,0.7,1.4,1.1C10.6,14.5,10.7,15,10.7,15.5z"/>
<path fill="#FFFFFF" d="M22.2,14.1h-6.1c0,0.7,0.2,1.2,0.4,1.7c0.2,0.5,0.7,0.9,1.1,1.1c0.5,0.3,1,0.4,1.5,0.4c0.4,0,0.7,0,1-0.1
	s0.6-0.2,0.9-0.4c0.3-0.2,0.5-0.4,0.8-0.6c0.2-0.2,0.6-0.5,0.9-0.8c0.2-0.1,0.4-0.2,0.7-0.2c0.3,0,0.6,0.1,0.8,0.2s0.3,0.4,0.3,0.7
	c0,0.3-0.1,0.6-0.3,0.9c-0.2,0.4-0.5,0.7-1,1c-0.4,0.3-1,0.6-1.7,0.8c-0.7,0.2-1.4,0.3-2.3,0.3c-2,0-3.6-0.5-4.7-1.6
	s-1.7-2.5-1.7-4.3c0-0.9,0.1-1.7,0.4-2.4s0.7-1.4,1.2-1.9s1.2-0.9,1.9-1.2c0.8-0.3,1.6-0.4,2.6-0.4c1.2,0,2.3,0.2,3.1,0.7
	c0.9,0.5,1.5,1.1,2,1.9c0.4,0.8,0.7,1.5,0.7,2.3c0,0.7-0.2,1.2-0.7,1.4C23.6,14,23,14.1,22.2,14.1z M16.1,12.4h5.7
	c-0.1-1-0.4-1.7-0.9-2.2s-1.2-0.7-2-0.7s-1.4,0.2-1.9,0.8C16.5,10.7,16.2,11.5,16.1,12.4z"/>
<path fill="#FFFFFF" d="M53.4,14.1h-6.1c0,0.7,0.2,1.2,0.4,1.7c0.2,0.5,0.7,0.9,1.1,1.1c0.5,0.3,1,0.4,1.5,0.4c0.4,0,0.7,0,1-0.1
	s0.6-0.2,0.9-0.4c0.3-0.2,0.5-0.4,0.8-0.6c0.2-0.2,0.6-0.5,0.9-0.8c0.2-0.1,0.4-0.2,0.7-0.2s0.6,0.1,0.8,0.2s0.3,0.4,0.3,0.7
	c0,0.3-0.1,0.6-0.3,0.9c-0.2,0.4-0.5,0.7-1,1c-0.4,0.3-1,0.6-1.7,0.8c-0.7,0.2-1.4,0.3-2.3,0.3c-2,0-3.6-0.5-4.7-1.6S44,15,44,13.2
	c0-0.9,0.1-1.7,0.4-2.4s0.7-1.4,1.2-1.9s1.2-0.9,1.9-1.2c0.8-0.3,1.6-0.4,2.6-0.4c1.2,0,2.3,0.2,3.1,0.7c0.9,0.5,1.5,1.1,2,1.9
	c0.4,0.8,0.7,1.5,0.7,2.3c0,0.7-0.2,1.2-0.7,1.4C54.8,14,54.2,14.1,53.4,14.1z M47.2,12.4h5.7c-0.1-1-0.4-1.7-0.9-2.2
	s-1.2-0.7-2-0.7s-1.4,0.2-1.9,0.8C47.6,10.7,47.4,11.5,47.2,12.4z"/>
<path fill="#FFFFFF" d="M61.5,9.1v0.4C62,8.8,62.7,8.3,63.3,8c0.7-0.3,1.4-0.5,2.3-0.5c0.8,0,1.6,0.2,2.2,0.5s1.1,0.8,1.5,1.4
	c0.2,0.4,0.3,0.7,0.4,1.1c0.1,0.4,0.1,0.9,0.1,1.6v5.4c0,0.6-0.2,1-0.4,1.3c-0.3,0.3-0.7,0.4-1.1,0.4c-0.5,0-0.9-0.2-1.1-0.5
	c-0.3-0.3-0.4-0.8-0.4-1.3v-4.8c0-0.9-0.2-1.7-0.4-2.2s-0.9-0.8-1.7-0.8c-0.6,0-1.1,0.2-1.5,0.5s-0.8,0.7-1,1.3
	C62,11.8,62,12.6,62,13.8v3.6c0,0.6-0.2,1-0.4,1.3s-0.7,0.4-1.1,0.4c-0.5,0-0.8-0.2-1.1-0.5S59,17.8,59,17.3V9.1
	c0-0.6,0.1-1,0.4-1.2s0.6-0.4,1.1-0.4c0.3,0,0.5,0.1,0.7,0.2c-0.2,0.1,0,0.3,0.1,0.5C61.4,8.5,61.5,8.7,61.5,9.1z"/>
<path fill="#FFFFFF" d="M42,9.9l-4.6,8.3c-0.4,0.8-0.9,1.3-1.3,1.5s-0.9,0.2-1.5-0.2c-0.3-0.2-0.7-0.7-1-1.4
	c-0.3-0.7-0.7-1.6-1.1-2.5c-0.4-0.9-0.9-1.9-1.6-3.1c-0.7-1.1-1.7-2.4-2.9-3.7c-0.5-0.6-1-1-1.4-1.3s-0.9-0.7-1.5-1.2
	S24,5.4,23.7,5.2C23,4.6,22.5,4,22.4,3.5s-0.1-1,0.2-1.5c0.3-0.5,0.7-0.8,1.2-0.9s1.1,0,1.8,0.4c0.5,0.3,1.2,0.8,1.9,1.5
	c0.8,0.7,1.7,1.7,2.6,2.9c1,1.2,1.9,2.6,2.8,4.1s1.7,3.1,2.4,4.9L39,8.2c0.4-0.7,0.8-1.1,1.2-1.3c0.4-0.2,0.9-0.2,1.5,0.2
	c0.6,0.3,0.8,0.7,0.8,1.2C42.5,8.6,42.3,9.2,42,9.9z"/>
<g>
	<path fill="#FFFFFF" d="M77.7,17.8h0.2c-0.3-0.3-0.5-0.6-0.7-0.9c-0.1-0.3-0.2-0.6-0.2-1s0.1-0.9,0.3-1.2c0.2-0.4,0.5-0.7,0.9-0.9
		s0.9-0.3,1.5-0.3c0.4,0,0.8,0.1,1.1,0.2s0.6,0.3,0.9,0.5c0.2,0.2,0.4,0.5,0.5,0.8s0.2,0.6,0.2,1s-0.1,0.8-0.2,1.1
		c-0.2,0.3-0.4,0.6-0.7,0.8h2c0.6,0,0.9,0.2,0.9,0.7c0,0.3-0.1,0.5-0.2,0.5c-0.2,0.1-0.4,0.1-0.7,0.1h-5.8c-0.3,0-0.4-0.1-0.6-0.2
		c-0.1-0.1-0.2-0.3-0.2-0.5s0.1-0.4,0.2-0.5C77.2,17.9,77.4,17.8,77.7,17.8z M79.6,15c-0.4,0-0.7,0.1-0.9,0.2s-0.5,0.3-0.6,0.5
		s-0.2,0.4-0.2,0.7c0,0.4,0.1,0.7,0.4,1s0.7,0.4,1.3,0.4c0.5,0,1-0.1,1.3-0.4s0.4-0.6,0.4-1c0-0.2-0.1-0.5-0.2-0.7s-0.3-0.4-0.6-0.5
		S80,15,79.6,15z"/>
	<path fill="#FFFFFF" d="M80,8.8v2.9c0.3,0,0.6-0.1,0.8-0.2s0.4-0.3,0.5-0.5s0.2-0.5,0.2-0.7s0-0.3-0.1-0.5s-0.1-0.3-0.2-0.4
		c0-0.2-0.1-0.4-0.2-0.5s-0.2-0.3-0.4-0.4c-0.1-0.1-0.1-0.2-0.1-0.3s0-0.3,0.1-0.4s0.2-0.1,0.3-0.1c0.1,0,0.3,0.1,0.4,0.2
		c0.2,0.1,0.3,0.3,0.5,0.5s0.3,0.5,0.4,0.8s0.1,0.7,0.1,1.1c0,0.9-0.2,1.7-0.7,2.2s-1.2,0.8-2,0.8c-0.4,0-0.8-0.1-1.1-0.2
		c-0.3-0.1-0.6-0.3-0.9-0.6c-0.2-0.2-0.4-0.6-0.6-0.9c-0.1-0.4-0.2-0.8-0.2-1.2c0-0.6,0.1-1.1,0.3-1.5C77.3,8.5,77.6,8.2,78,8
		s0.7-0.3,1.1-0.3c0.3,0,0.6,0.1,0.7,0.3C79.9,8.1,80,8.4,80,8.8z M79.2,11.6V9c-0.5,0-0.8,0.2-1,0.4s-0.3,0.5-0.3,0.9
		s0.1,0.7,0.3,0.9C78.4,11.5,78.8,11.6,79.2,11.6z"/>
</g>
</svg>
